<svg data-v-423bf9ae="" xmlns="http://www.w3.org/2000/svg" viewBox="0 0 90 90" class="iconLeft"><!----><!----><!----><defs data-v-423bf9ae=""><linearGradient data-v-423bf9ae="" gradientTransform="rotate(25)" id="8b554909-695c-403f-b62d-bff5df942bb6" x1="0%" y1="0%" x2="100%" y2="0%"><stop data-v-423bf9ae="" offset="0%" style="stop-color: rgb(218, 182, 182); stop-opacity: 1;"></stop><stop data-v-423bf9ae="" offset="100%" style="stop-color: rgb(224, 77, 77); stop-opacity: 1;"></stop></linearGradient></defs><g data-v-423bf9ae="" id="57a4384f-3697-4bfc-82f7-5424763202dd" transform="matrix(1.0922330906123996,0,0,1.0922330906123996,-4.61165453061998,-8.811651127020852)" stroke="none" fill="url(#8b554909-695c-403f-b62d-bff5df942bb6)"><path d="M33 38.8h53.7L60.6 17.9 33 38.8zm30.7-4.3H57v-6.7h6.7v6.7z"></path><path d="M89.3 76.2c-.5 0-1.1.2-2 .5V41.6H31.8v13.5H13.9V37.5l21.1-8-9.7 7.8h5.9l29.4-22.4 27.8 22.4h5.2l-33-28.5-15.5 12.5L5 36.5v4.4L9.9 39v33H5v4h4.9v15.2H95V73.6l-5.7 2.6zM31.7 87.1h-4.2v-2.4h-9.9v2.4h-3.7V76h17.8v11.1zm.1-15.1H13.9V59.1h17.9V72zm29.3-25.1h6.3V57h-6.3V46.9zm0 12.2h6.3v10.1h-6.3V59.1zm-7.8-12.2h6.3V57h-6.3V46.9zm0 12.2h6.3v10.1h-6.3V59.1zm30 18.8c-2.8.9-5.6 1.8-8.5 2.2-4.7.7-9.3 1.6-13.8 3.1-5.6 1.8-11.7.3-17.4 1.5-2.6.5-5.2 1.3-7.8 2V76H83.4v1.9z"></path><path d="M17.6 78.2h9.9v4h-9.9z"></path></g><!----></svg>