<svg data-v-423bf9ae="" xmlns="http://www.w3.org/2000/svg" viewBox="0 0 741 90" class="iconLeft"><!----><!----><!----><g data-v-423bf9ae="" id="f50390f2-f52a-4baa-84f4-ee7268d0d124" fill="#eee" transform="matrix(5.802707844736658,0,0,5.802707844736658,115.2835835607467,-5.483559241159334)"><path d="M6.61 11.59L6.61 13.72L0.52 13.72L0.52 13.20L1.75 12.91L1.75 5.96L0.52 5.67L0.52 5.15L4.38 5.15L4.38 5.67L3.14 5.96L3.14 12.88L5.64 12.88L6.01 11.59L6.61 11.59ZM7.78 7.18L7.29 3.95L8.67 3.95L8.19 7.18L7.78 7.18ZM13.58 13.72L9.74 13.72L9.74 13.20L10.98 12.91L10.98 5.95L9.74 5.67L9.74 5.15L13.58 5.15L13.58 5.67L12.36 5.95L12.36 9.09L16.25 9.09L16.25 5.95L15.02 5.67L15.02 5.15L18.87 5.15L18.87 5.67L17.64 5.95L17.64 12.91L18.89 13.20L18.89 13.72L15.02 13.72L15.02 13.20L16.25 12.91L16.25 9.81L12.36 9.81L12.36 12.91L13.58 13.20L13.58 13.72ZM25.12 5.66L24.77 5.96L23.21 4.72L21.67 5.96L21.31 5.66L22.74 3.71L23.69 3.71L25.12 5.66ZM23.21 6.71Q24.92 6.71 25.73 7.70Q26.53 8.69 26.53 10.32L26.53 10.32Q26.53 11.89 25.72 12.87Q24.91 13.86 23.21 13.86L23.21 13.86Q21.53 13.86 20.71 12.87Q19.89 11.89 19.89 10.32L19.89 10.32Q19.89 8.71 20.71 7.71Q21.52 6.71 23.21 6.71L23.21 6.71ZM25.02 10.28Q25.02 8.93 24.61 8.20Q24.21 7.46 23.17 7.46L23.17 7.46Q22.19 7.46 21.80 8.20Q21.41 8.95 21.41 10.28L21.41 10.28Q21.41 11.62 21.81 12.36Q22.22 13.10 23.25 13.10L23.25 13.10Q24.26 13.10 24.64 12.37Q25.02 11.63 25.02 10.28L25.02 10.28ZM31.60 13.55Q31.19 13.66 30.51 13.76Q29.83 13.85 29.47 13.85L29.47 13.85Q28.34 13.85 28.34 12.71L28.34 12.71L28.34 7.64L27.31 7.64L27.31 7.10L28.46 6.69L29.08 5.29L29.71 5.29L29.71 6.85L31.79 6.85L31.79 7.76L29.71 7.64L29.71 12.80L31.60 13.08L31.60 13.55ZM35.66 13.87Q34.01 13.87 33.22 12.94Q32.44 12.01 32.44 10.32L32.44 10.32Q32.44 8.51 33.24 7.61Q34.05 6.71 35.50 6.71L35.50 6.71Q36.89 6.71 37.54 7.35Q38.19 7.99 38.19 9.37L38.19 9.37Q38.19 9.73 38.15 10.14L38.15 10.14L33.95 10.14L33.95 10.54Q33.95 11.77 34.48 12.40Q35 13.03 35.97 13.03L35.97 13.03Q36.86 13.03 38.01 12.71L38.01 12.71L38.11 13.20Q37.55 13.55 36.97 13.71Q36.40 13.87 35.66 13.87L35.66 13.87ZM33.98 9.56L36.74 9.41L36.74 9.10Q36.74 8.29 36.47 7.89Q36.20 7.49 35.59 7.49L35.59 7.49Q34.75 7.49 34.39 7.97Q34.03 8.46 33.98 9.56L33.98 9.56ZM42.63 13.72L38.82 13.72L38.82 13.19L40.04 12.91L40.04 4.63L38.82 4.49L38.82 4.06L40.96 3.53L41.43 3.53L41.43 12.91L42.63 13.19L42.63 13.72ZM50.83 13.06Q50.30 13.45 49.74 13.66Q49.18 13.86 48.51 13.86L48.51 13.86Q47.73 13.86 47.17 13.38Q46.62 12.89 46.35 12.09Q46.07 11.28 46.07 10.32L46.07 10.32Q46.07 8.62 46.90 7.67Q47.73 6.71 49.20 6.71L49.20 6.71Q49.56 6.71 49.92 6.78Q50.27 6.85 50.53 6.93Q50.78 7.01 50.79 7.04L50.79 7.04L50.79 4.63L49.59 4.49L49.59 4.06L51.73 3.53L52.18 3.53L52.18 12.80L53.38 13.09L53.38 13.55Q52.61 13.78 51.87 13.78L51.87 13.78Q51.52 13.78 51.21 13.58Q50.90 13.38 50.83 13.06L50.83 13.06ZM49.17 12.95Q49.62 12.95 50.06 12.78Q50.50 12.61 50.79 12.42L50.79 12.42L50.79 7.87Q50.16 7.46 49.36 7.46L49.36 7.46Q48.50 7.46 48.04 8.21Q47.59 8.96 47.59 10.28L47.59 10.28Q47.59 11.51 47.98 12.23Q48.37 12.95 49.17 12.95L49.17 12.95ZM57.22 13.87Q55.57 13.87 54.78 12.94Q54.00 12.01 54.00 10.32L54.00 10.32Q54.00 8.51 54.80 7.61Q55.61 6.71 57.06 6.71L57.06 6.71Q58.45 6.71 59.10 7.35Q59.75 7.99 59.75 9.37L59.75 9.37Q59.75 9.73 59.71 10.14L59.71 10.14L55.51 10.14L55.51 10.54Q55.51 11.77 56.03 12.40Q56.56 13.03 57.53 13.03L57.53 13.03Q58.42 13.03 59.57 12.71L59.57 12.71L59.67 13.20Q59.11 13.55 58.53 13.71Q57.96 13.87 57.22 13.87L57.22 13.87ZM55.54 9.56L58.30 9.41L58.30 9.10Q58.30 8.29 58.03 7.89Q57.76 7.49 57.15 7.49L57.15 7.49Q56.31 7.49 55.95 7.97Q55.59 8.46 55.54 9.56L55.54 9.56ZM69.15 5.67L69.15 5.15L72.35 5.15L72.35 5.67L71.19 5.95L71.19 13.72L70.11 13.86L65.37 7.03L65.37 12.91L66.56 13.20L66.56 13.72L63.36 13.72L63.36 13.20L64.50 12.91L64.50 5.95L63.36 5.67L63.36 5.15L65.69 5.15L70.34 11.76L70.34 5.95L69.15 5.67ZM74.94 5.66Q74.55 5.66 74.27 5.40Q73.99 5.14 73.99 4.76L73.99 4.76Q73.99 4.38 74.28 4.10Q74.56 3.82 74.94 3.82L74.94 3.82Q75.31 3.82 75.59 4.10Q75.88 4.38 75.88 4.76L75.88 4.76Q75.88 5.14 75.60 5.40Q75.32 5.66 74.94 5.66L74.94 5.66ZM76.85 13.72L73.05 13.72L73.05 13.19L74.26 12.91L74.26 7.81L73.05 7.67L73.05 7.24L75.21 6.71L75.64 6.71L75.64 12.91L76.85 13.19L76.85 13.72ZM80.68 13.86Q79.11 13.86 78.36 12.87Q77.60 11.89 77.60 10.32L77.60 10.32Q77.60 8.69 78.35 7.70Q79.10 6.71 80.68 6.71L80.68 6.71Q81.34 6.71 81.86 6.81Q82.39 6.92 82.99 7.15L82.99 7.15L82.73 8.95L82.17 8.95L81.84 7.67Q81.30 7.49 80.77 7.49L80.77 7.49Q79.83 7.49 79.47 8.20Q79.11 8.92 79.11 10.28L79.11 10.28Q79.11 11.68 79.50 12.35Q79.88 13.02 80.85 13.02L80.85 13.02Q81.90 13.02 82.94 12.70L82.94 12.70L83.02 13.20Q82.45 13.52 81.89 13.69Q81.33 13.86 80.68 13.86L80.68 13.86ZM87.11 6.71Q88.82 6.71 89.62 7.70Q90.43 8.69 90.43 10.32L90.43 10.32Q90.43 11.89 89.61 12.87Q88.80 13.86 87.11 13.86L87.11 13.86Q85.43 13.86 84.61 12.87Q83.79 11.89 83.79 10.32L83.79 10.32Q83.79 8.71 84.60 7.71Q85.41 6.71 87.11 6.71L87.11 6.71ZM88.91 10.28Q88.91 8.93 88.51 8.20Q88.10 7.46 87.07 7.46L87.07 7.46Q86.09 7.46 85.69 8.20Q85.30 8.95 85.30 10.28L85.30 10.28Q85.30 11.62 85.71 12.36Q86.11 13.10 87.15 13.10L87.15 13.10Q88.16 13.10 88.54 12.37Q88.91 11.63 88.91 10.28L88.91 10.28ZM94.96 13.72L91.15 13.72L91.15 13.19L92.37 12.91L92.37 4.63L91.15 4.49L91.15 4.06L93.30 3.53L93.76 3.53L93.76 12.91L94.96 13.19L94.96 13.72ZM98.45 7.56Q97.79 7.56 97.17 7.76L97.17 7.76L96.85 8.95L96.31 8.95L96.07 7.22Q97.47 6.71 98.77 6.71L98.77 6.71Q99.83 6.71 100.39 7.06Q100.95 7.42 100.95 8.30L100.95 8.30L100.95 12.80L102.16 13.09L102.16 13.55Q101.37 13.78 100.66 13.78L100.66 13.78Q100.27 13.78 99.97 13.58Q99.68 13.38 99.60 13.02L99.60 13.02Q99.02 13.44 98.46 13.66Q97.90 13.87 97.29 13.87L97.29 13.87Q96.56 13.87 96.14 13.37Q95.73 12.87 95.73 12.15L95.73 12.15Q95.73 11.48 96.12 10.92Q96.50 10.36 97.51 10.18L97.51 10.18L99.57 9.80L99.57 8.68Q99.57 8.11 99.32 7.83Q99.08 7.56 98.45 7.56L98.45 7.56ZM98.29 10.70Q97.15 10.92 97.15 11.94L97.15 11.94Q97.15 12.92 98.08 12.92L98.08 12.92Q98.69 12.92 99.57 12.45L99.57 12.45L99.57 10.47L98.29 10.70ZM105.52 7.49Q104.89 7.49 104.54 7.74Q104.19 7.98 104.19 8.41L104.19 8.41Q104.19 8.82 104.38 9.04Q104.58 9.25 105.08 9.44L105.08 9.44L106.27 9.84Q107.13 10.14 107.46 10.56Q107.79 10.98 107.79 11.72L107.79 11.72Q107.79 12.71 107.09 13.29Q106.40 13.86 105.10 13.86L105.10 13.86Q104.59 13.86 104.00 13.76Q103.40 13.66 102.94 13.50L102.94 13.50L103.14 11.77L103.68 11.77L103.98 12.94Q104.54 13.10 105.13 13.10L105.13 13.10Q106.57 13.10 106.57 11.97L106.57 11.97Q106.57 11.63 106.34 11.42Q106.12 11.20 105.52 10.99L105.52 10.99L104.44 10.63Q103.70 10.35 103.36 9.91Q103.03 9.48 103.03 8.76L103.03 8.76Q103.03 7.78 103.66 7.25Q104.29 6.71 105.55 6.71L105.55 6.71Q106.54 6.71 107.52 7.14L107.52 7.14L107.31 8.72L106.78 8.72L106.48 7.70Q106.30 7.62 106.03 7.55Q105.76 7.49 105.52 7.49L105.52 7.49Z"></path></g><defs data-v-423bf9ae=""><linearGradient data-v-423bf9ae="" gradientTransform="rotate(25)" id="41c34273-43c3-4393-8dce-a68b3fbdc622" x1="0%" y1="0%" x2="100%" y2="0%"><stop data-v-423bf9ae="" offset="0%" style="stop-color: rgb(218, 182, 182); stop-opacity: 1;"></stop><stop data-v-423bf9ae="" offset="100%" style="stop-color: rgb(224, 77, 77); stop-opacity: 1;"></stop></linearGradient></defs><g data-v-423bf9ae="" id="0f119b54-2bb9-4cde-9e77-8fb7542b3749" transform="matrix(1.0922330906123996,0,0,1.0922330906123996,-4.61165453061998,-8.811651127020852)" stroke="none" fill="url(#41c34273-43c3-4393-8dce-a68b3fbdc622)"><path d="M33 38.8h53.7L60.6 17.9 33 38.8zm30.7-4.3H57v-6.7h6.7v6.7z"></path><path d="M89.3 76.2c-.5 0-1.1.2-2 .5V41.6H31.8v13.5H13.9V37.5l21.1-8-9.7 7.8h5.9l29.4-22.4 27.8 22.4h5.2l-33-28.5-15.5 12.5L5 36.5v4.4L9.9 39v33H5v4h4.9v15.2H95V73.6l-5.7 2.6zM31.7 87.1h-4.2v-2.4h-9.9v2.4h-3.7V76h17.8v11.1zm.1-15.1H13.9V59.1h17.9V72zm29.3-25.1h6.3V57h-6.3V46.9zm0 12.2h6.3v10.1h-6.3V59.1zm-7.8-12.2h6.3V57h-6.3V46.9zm0 12.2h6.3v10.1h-6.3V59.1zm30 18.8c-2.8.9-5.6 1.8-8.5 2.2-4.7.7-9.3 1.6-13.8 3.1-5.6 1.8-11.7.3-17.4 1.5-2.6.5-5.2 1.3-7.8 2V76H83.4v1.9z"></path><path d="M17.6 78.2h9.9v4h-9.9z"></path></g><!----></svg>