<svg data-v-fde0c5aa="" xmlns="http://www.w3.org/2000/svg" viewBox="0 100 300 100" class="iconLeft"><!----><defs data-v-fde0c5aa=""><!----></defs><rect data-v-fde0c5aa="" fill="transparent" x="0" y="0" width="200px" height="200px" class="logo-background-square"></rect><defs data-v-fde0c5aa=""><linearGradient data-v-fde0c5aa="" gradientTransform="rotate(25)" id="df983e4a-facb-4436-8b05-93118549956c" x1="0%" y1="0%" x2="100%" y2="0%"><stop data-v-fde0c5aa="" offset="0%" stop-color="#F4618C" stop-opacity="1"></stop><stop data-v-fde0c5aa="" offset="100%" stop-color="#8B022B" stop-opacity="1"></stop></linearGradient></defs><g data-v-fde0c5aa="" id="5d054152-4cbd-4a2d-8616-268d0214dba5" fill="url(#df983e4a-facb-4436-8b05-93118549956c)" transform="matrix(2.1428212129069815,0,0,2.1428212129069815,124.93798118305523,129.45034526303024)"><path d="M9.63 3.67L9.90 2.80L10.58 2.80L10.30 6.34L9.74 6.34Q9.45 5.05 8.60 4.31Q7.76 3.57 6.55 3.57L6.55 3.57Q5.73 3.57 5.08 3.90Q4.44 4.23 4.00 4.84Q3.56 5.45 3.33 6.32Q3.09 7.20 3.09 8.29L3.09 8.29Q3.09 10.46 3.98 11.63Q4.87 12.80 6.61 12.80L6.61 12.80Q8.01 12.80 8.93 12.04Q9.84 11.28 10.23 9.79L10.23 9.79L10.85 9.79L10.85 13.58L10.19 13.58L10.00 12.47Q8.46 13.72 6.26 13.72L6.26 13.72Q4.98 13.72 3.95 13.34Q2.91 12.96 2.18 12.27Q1.46 11.58 1.06 10.58Q0.66 9.59 0.66 8.37L0.66 8.37Q0.66 7.10 1.08 6.05Q1.50 5.00 2.26 4.24Q3.02 3.49 4.08 3.07Q5.14 2.66 6.43 2.66L6.43 2.66Q7.28 2.66 8.02 2.90Q8.76 3.14 9.63 3.67L9.63 3.67ZM16.34 10.92L16.34 9.59Q15.16 10.12 14.57 10.58Q13.97 11.03 13.97 11.52L13.97 11.52Q13.97 11.93 14.20 12.17Q14.42 12.40 14.76 12.40L14.76 12.40Q15.09 12.40 15.39 12.29Q15.68 12.17 15.89 11.97Q16.10 11.77 16.22 11.50Q16.34 11.23 16.34 10.92L16.34 10.92ZM14.36 9.70L16.34 8.85L16.34 8.26Q16.34 7.45 16.05 7.08Q15.76 6.71 15.16 6.71L15.16 6.71Q14.76 6.71 14.55 6.92Q14.34 7.14 14.15 7.64L14.15 7.64Q14.03 7.99 13.80 8.19Q13.57 8.39 13.16 8.39L13.16 8.39Q12.77 8.39 12.56 8.15Q12.35 7.91 12.35 7.48L12.35 7.48Q12.35 6.80 13.08 6.41Q13.82 6.02 15.30 6.02L15.30 6.02Q16.87 6.02 17.54 6.59Q18.21 7.15 18.21 8.48L18.21 8.48L18.21 11.55Q18.21 12.74 18.69 12.74L18.69 12.74Q18.96 12.74 19.18 12.56L19.18 12.56L19.39 12.96Q19.19 13.31 18.78 13.52Q18.37 13.72 17.85 13.72L17.85 13.72Q17.21 13.72 16.87 13.33Q16.53 12.94 16.53 12.22L16.53 12.22L16.46 12.22Q16.06 12.95 15.41 13.33Q14.77 13.71 13.94 13.71L13.94 13.71Q13.06 13.71 12.53 13.21Q12.00 12.71 12.00 11.91L12.00 11.91Q12.00 11.30 12.54 10.76Q13.09 10.22 14.36 9.70L14.36 9.70ZM22.71 9.63L22.71 10.51Q22.71 11.03 22.86 11.47Q23.00 11.91 23.25 12.24Q23.51 12.56 23.86 12.74Q24.21 12.92 24.63 12.92L24.63 12.92Q25.47 12.92 25.90 12.15Q26.33 11.38 26.33 9.88L26.33 9.88Q26.33 8.43 25.91 7.67Q25.48 6.90 24.63 6.90L24.63 6.90Q24.12 6.90 23.70 7.17Q23.27 7.45 23.03 7.94L23.03 7.94Q22.71 8.61 22.71 9.63L22.71 9.63ZM22.68 1.96L22.68 7.13L22.74 7.13Q23.10 6.59 23.67 6.31Q24.25 6.02 24.98 6.02L24.98 6.02Q25.72 6.02 26.36 6.32Q26.99 6.62 27.46 7.14Q27.93 7.66 28.20 8.36Q28.46 9.06 28.46 9.86L28.46 9.86Q28.46 10.70 28.18 11.40Q27.89 12.11 27.39 12.63Q26.89 13.15 26.23 13.44Q25.56 13.73 24.82 13.73L24.82 13.73Q24.05 13.73 23.37 13.43Q22.69 13.13 22.29 12.64L22.29 12.64L21.22 13.58L20.75 13.58L20.75 5.25Q20.75 3.93 20.57 3.44L20.57 3.44Q20.52 3.35 20.47 3.28Q20.41 3.21 20.31 3.16Q20.20 3.11 20.02 3.07Q19.84 3.04 19.54 3.00L19.54 3.00L19.54 2.52L22.68 1.96ZM32.59 6.02L32.59 11.28Q32.59 11.84 32.63 12.18Q32.68 12.52 32.80 12.70Q32.93 12.88 33.17 12.94Q33.40 13.01 33.81 13.02L33.81 13.02L33.81 13.58L29.40 13.58L29.40 13.02Q29.79 13.01 30.04 12.93Q30.28 12.85 30.41 12.68Q30.55 12.50 30.60 12.19Q30.65 11.87 30.65 11.38L30.65 11.38L30.65 9.66Q30.65 8.85 30.62 8.32Q30.59 7.80 30.55 7.60L30.55 7.60Q30.48 7.25 30.23 7.14Q29.99 7.03 29.34 7.03L29.34 7.03L29.34 6.55L32.59 6.02ZM30.53 3.05L30.53 3.05Q30.53 2.59 30.85 2.28Q31.16 1.96 31.61 1.96L31.61 1.96Q32.07 1.96 32.39 2.28Q32.70 2.59 32.70 3.05L32.70 3.05Q32.70 3.50 32.39 3.81Q32.07 4.13 31.61 4.13L31.61 4.13Q31.16 4.13 30.85 3.81Q30.53 3.50 30.53 3.05ZM37.65 9.37L37.65 11.30Q37.65 11.87 37.68 12.20Q37.72 12.53 37.84 12.71Q37.95 12.88 38.20 12.94Q38.44 12.99 38.86 13.02L38.86 13.02L38.86 13.58L34.45 13.58L34.45 13.02Q34.86 12.99 35.11 12.94Q35.35 12.88 35.48 12.71Q35.62 12.54 35.66 12.24Q35.70 11.93 35.70 11.40L35.70 11.40L35.70 9.65Q35.70 8.82 35.67 8.31Q35.64 7.80 35.60 7.62L35.60 7.62Q35.56 7.43 35.49 7.31Q35.42 7.20 35.28 7.13Q35.14 7.07 34.93 7.05Q34.72 7.03 34.40 7.03L34.40 7.03L34.40 6.55L37.10 6.02L37.28 7.25L37.34 7.25Q37.80 6.66 38.43 6.34Q39.06 6.02 39.82 6.02L39.82 6.02Q40.71 6.02 41.27 6.26Q41.82 6.51 42.25 7.08L42.25 7.08Q42.49 7.41 42.67 7.92Q42.85 8.43 42.85 9.32L42.85 9.32L42.85 11.30Q42.85 11.87 42.89 12.20Q42.92 12.53 43.04 12.71Q43.16 12.88 43.40 12.94Q43.64 12.99 44.04 13.02L44.04 13.02L44.04 13.58L39.66 13.58L39.66 13.02Q40.08 13.01 40.33 12.94Q40.57 12.88 40.70 12.71Q40.82 12.54 40.87 12.23Q40.91 11.91 40.91 11.40L40.91 11.40L40.91 9.49Q40.91 8.78 40.82 8.29Q40.74 7.80 40.55 7.50Q40.36 7.20 40.05 7.06Q39.75 6.93 39.28 6.93L39.28 6.93Q38.84 6.93 38.51 7.18Q38.19 7.43 37.95 7.88L37.95 7.88Q37.83 8.13 37.74 8.53Q37.65 8.93 37.65 9.37L37.65 9.37ZM48.24 8.61L48.24 11.33Q48.24 11.86 48.31 12.19Q48.38 12.52 48.60 12.69Q48.82 12.87 49.22 12.94Q49.62 13.01 50.29 13.02L50.29 13.02L50.29 13.58L44.72 13.58L44.72 13.02Q45.18 13.01 45.47 12.94Q45.77 12.87 45.92 12.70Q46.07 12.53 46.13 12.22Q46.19 11.91 46.19 11.42L46.19 11.42L46.19 4.96Q46.19 4.47 46.14 4.16Q46.09 3.86 45.95 3.69Q45.81 3.51 45.55 3.45Q45.29 3.39 44.87 3.36L44.87 3.36L44.87 2.80L53.44 2.80L53.61 5.75L53.02 5.75Q52.93 5.15 52.77 4.74Q52.61 4.33 52.32 4.07Q52.02 3.81 51.56 3.70Q51.10 3.58 50.43 3.58L50.43 3.58L48.50 3.58Q48.24 3.58 48.24 3.82L48.24 3.82L48.24 7.87Q49.10 7.87 49.64 7.80Q50.18 7.73 50.50 7.53Q50.82 7.32 50.96 6.97Q51.10 6.62 51.16 6.05L51.16 6.05L51.67 6.05L51.67 10.43L51.16 10.43Q51.07 9.84 50.92 9.48Q50.76 9.13 50.45 8.94Q50.13 8.75 49.60 8.68Q49.07 8.61 48.24 8.61L48.24 8.61ZM61.10 9.06L57.89 15.78Q57.74 16.09 57.51 16.35Q57.27 16.62 56.99 16.81Q56.70 17.00 56.39 17.11Q56.08 17.22 55.78 17.22L55.78 17.22Q55.31 17.22 55.03 17.00Q54.75 16.77 54.75 16.39L54.75 16.39Q54.75 16.04 55.00 15.85Q55.24 15.65 55.79 15.61L55.79 15.61Q57.04 15.51 57.40 14.83L57.40 14.83L57.78 14.10L55.30 7.97Q55.13 7.56 55.01 7.32Q54.89 7.08 54.75 6.95Q54.61 6.82 54.43 6.78Q54.25 6.73 53.98 6.72L53.98 6.72L53.98 6.16L58.23 6.16L58.23 6.72Q57.68 6.72 57.46 6.83Q57.25 6.93 57.25 7.21L57.25 7.21Q57.25 7.32 57.28 7.47Q57.32 7.62 57.37 7.77L57.37 7.77L58.80 11.86L58.86 11.86L60.06 9.13Q60.24 8.69 60.37 8.41Q60.49 8.12 60.56 7.92Q60.62 7.71 60.65 7.59Q60.68 7.46 60.68 7.34L60.68 7.34Q60.68 6.97 60.47 6.85Q60.27 6.72 59.65 6.72L59.65 6.72L59.65 6.16L63.03 6.16L63.03 6.72Q62.75 6.72 62.55 6.80Q62.36 6.87 62.15 7.11Q61.95 7.35 61.70 7.82Q61.46 8.29 61.10 9.06L61.10 9.06Z"></path></g><defs data-v-fde0c5aa=""><linearGradient data-v-fde0c5aa="" gradientTransform="rotate(25)" id="5baefafa-6ad8-47d5-981f-0b9c8dab9d2c" x1="0%" y1="0%" x2="100%" y2="0%"><stop data-v-fde0c5aa="" offset="0%" stop-color="#E3B1B4" stop-opacity="1"></stop><stop data-v-fde0c5aa="" offset="100%" stop-color="#E85860" stop-opacity="1"></stop></linearGradient></defs><g data-v-fde0c5aa="" id="0774e39a-39f1-45b8-983f-f2f64c211fde" stroke="none" fill="url(#5baefafa-6ad8-47d5-981f-0b9c8dab9d2c)" transform="matrix(0.7335224323977155,0,0,0.7335224323977155,40,113.32461289869372)"><path d="M63.038 54.723h11.96v23.926h-11.96V54.723zM19.019 21.352l-15.43 28.71 3.949-1.2-5.744 10.646 4.069-1.197L0 69.076l15.43-2.393v11.965H0v4.785h95.214V50.062H100L69.021 16.565 38.039 50.062h4.783v28.586H22.607V66.686l15.432 2.392-5.859-10.767 4.062 1.197-5.737-10.646 3.945 1.2-15.431-28.71z"></path></g><!----></svg>